<svg id="bible_logo" data-name="bible logo" xmlns="http://www.w3.org/2000/svg" viewBox="0 0 500 500"><defs><style>.cls-1{fill:none;}</style></defs><title>bible-logo</title><path d="M426.09,25H103.22A44,44,0,0,0,59.28,69V431a44,44,0,0,0,43.95,44H426a14.68,14.68,0,0,0,14.68-14.68h0V39.68A14.68,14.68,0,0,0,426.09,25ZM191.31,171.78h44V127.72a14.68,14.68,0,0,1,29.35-.72q0,0.36,0,.72v44.06h44a14.68,14.68,0,0,1,0,29.35h-44V303.81a14.68,14.68,0,0,1-29.35,0V201.09h-44A14.68,14.68,0,0,1,191.31,171.78Zm220.1,273.88H103.22a14.68,14.68,0,1,1-.72-29.35H411.41v29.35h0Z"/><rect class="cls-1" width="500" height="500"/></svg>